<svg width="40" height="40" viewBox="0 0 40 40" fill="none" xmlns="http://www.w3.org/2000/svg">
<rect width="40" height="40" rx="20" fill="white" fill-opacity="0.05"/>
<path d="M21.9931 11.1995L21.9934 11.1997L27.7533 15.2296C27.7533 15.2296 27.7533 15.2297 27.7534 15.2297C28.2226 15.5581 28.6668 16.0967 28.9943 16.7239C29.3217 17.3511 29.51 18.0243 29.51 18.6V25.38C29.51 27.6539 27.6639 29.5 25.39 29.5H14.61C12.3375 29.5 10.49 27.6453 10.49 25.37V18.47C10.49 17.9356 10.6604 17.2965 10.9586 16.6909C11.2566 16.0855 11.6611 15.5569 12.0875 15.2242L12.0876 15.2242L17.0962 11.3152C17.0965 11.3151 17.0967 11.3149 17.0969 11.3147C18.4338 10.2794 20.6028 10.2254 21.9931 11.1995ZM20 27.25C20.6861 27.25 21.25 26.6861 21.25 26V23C21.25 22.3139 20.6861 21.75 20 21.75C19.3139 21.75 18.75 22.3139 18.75 23V26C18.75 26.6861 19.3139 27.25 20 27.25Z" stroke="white"/>
</svg>
